<mxfile host="app.diagrams.net" modified="2024-07-18T03:24:06.589Z" agent="Mozilla/5.0 (X11; Linux x86_64) AppleWebKit/537.36 (KHTML, like Gecko) Chrome/125.0.0.0 Safari/537.36" etag="Fv4c3hATtarRb5YuYL15" version="24.7.1" type="github">
  <diagram name="Page-1" id="S9tSxEVYN7HVss_Y5YDO">
    <mxGraphModel dx="1434" dy="752" grid="1" gridSize="10" guides="1" tooltips="1" connect="1" arrows="1" fold="1" page="1" pageScale="1" pageWidth="850" pageHeight="1100" math="0" shadow="0">
      <root>
        <mxCell id="0" />
        <mxCell id="1" parent="0" />
        <mxCell id="nqNrFH11xOCnC7djM3GG-4" style="edgeStyle=orthogonalEdgeStyle;rounded=0;orthogonalLoop=1;jettySize=auto;html=1;" edge="1" parent="1" source="nqNrFH11xOCnC7djM3GG-1" target="nqNrFH11xOCnC7djM3GG-2">
          <mxGeometry relative="1" as="geometry" />
        </mxCell>
        <mxCell id="nqNrFH11xOCnC7djM3GG-1" value="Extracted performance events of player u in match m" style="rounded=0;whiteSpace=wrap;html=1;" vertex="1" parent="1">
          <mxGeometry x="170" y="70" width="200" height="110" as="geometry" />
        </mxCell>
        <mxCell id="nqNrFH11xOCnC7djM3GG-5" style="edgeStyle=orthogonalEdgeStyle;rounded=0;orthogonalLoop=1;jettySize=auto;html=1;" edge="1" parent="1" source="nqNrFH11xOCnC7djM3GG-2" target="nqNrFH11xOCnC7djM3GG-3">
          <mxGeometry relative="1" as="geometry" />
        </mxCell>
        <mxCell id="nqNrFH11xOCnC7djM3GG-2" value="Performance rating of player u in match m" style="rounded=0;whiteSpace=wrap;html=1;" vertex="1" parent="1">
          <mxGeometry x="330" y="260" width="190" height="100" as="geometry" />
        </mxCell>
        <mxCell id="nqNrFH11xOCnC7djM3GG-3" value="Aggregating player rating to produce overall player rating" style="rounded=0;whiteSpace=wrap;html=1;" vertex="1" parent="1">
          <mxGeometry x="335" y="440" width="180" height="100" as="geometry" />
        </mxCell>
        <mxCell id="nqNrFH11xOCnC7djM3GG-7" style="edgeStyle=orthogonalEdgeStyle;rounded=0;orthogonalLoop=1;jettySize=auto;html=1;" edge="1" parent="1" source="nqNrFH11xOCnC7djM3GG-6" target="nqNrFH11xOCnC7djM3GG-2">
          <mxGeometry relative="1" as="geometry" />
        </mxCell>
        <mxCell id="nqNrFH11xOCnC7djM3GG-6" value="Applying weights assigned to each features&amp;nbsp;" style="rounded=0;whiteSpace=wrap;html=1;" vertex="1" parent="1">
          <mxGeometry x="460" y="70" width="180" height="110" as="geometry" />
        </mxCell>
      </root>
    </mxGraphModel>
  </diagram>
</mxfile>
